<svg width="240" height="240" viewBox="0 0 240 240" fill="none" xmlns="http://www.w3.org/2000/svg">
<g clip-path="url(#clip0_1101_144)">
<path d="M231.88 3.06395C225.675 -3.14184 216.131 -4.13268 203.563 0.195727C198.035 2.07311 191.777 4.99348 184.737 8.95684C180.513 11.3557 175.976 14.0675 171.283 17.1965C170.031 18.0309 168.78 18.8652 167.476 19.7518C174.672 23.4023 181.4 27.835 187.605 33.0499C189.066 32.1634 190.422 31.2768 191.777 30.4946C203.668 23.4023 211.125 20.6905 215.036 19.9082C213.993 25.1753 209.456 37.0133 195.271 57.4559C194.124 59.0725 192.977 60.7413 191.777 62.4101C189.118 58.8118 186.145 55.3177 182.86 52.0845C146.929 16.1535 88.6257 16.1535 52.6947 52.0845C16.7637 88.0155 16.7637 146.319 52.6947 182.25C55.9802 185.535 59.422 188.508 63.0203 191.167C61.3516 192.367 59.6828 193.514 58.0661 194.661C37.6235 208.794 25.7856 213.383 20.5185 214.426C21.1443 211.245 23.0738 205.56 27.7151 197.008C29.3318 194.035 31.2613 190.698 33.608 186.995C28.4452 180.789 24.0125 174.062 20.3099 166.866C19.4234 168.117 18.589 169.421 17.7546 170.672C13.4262 177.243 9.82787 183.345 6.95964 188.925C4.30002 194.035 2.26619 198.729 0.806003 202.953C-3.47026 215.521 -2.53156 225.064 3.67422 231.27C9.88001 237.476 19.4234 238.467 31.9914 234.138C40.8568 231.114 51.7039 225.377 64.2719 217.138C89.0951 200.815 118.716 175.94 147.607 147.049C176.498 118.158 201.425 88.537 217.696 63.7138C225.935 51.1458 231.672 40.2987 234.696 31.4333C239.025 18.8131 238.086 9.32189 231.88 3.06395ZM52.3297 125.928C47.4798 125.928 43.5686 122.017 43.5686 117.167C43.5686 97.2459 51.3389 78.4721 65.4192 64.3918C68.8611 60.9499 74.3889 60.9499 77.8308 64.3918C81.2727 67.8336 81.2727 73.3615 77.8308 76.8033C67.0359 87.5983 61.0908 101.939 61.0908 117.167C61.143 122.017 57.1796 125.928 52.3297 125.928Z" fill="black"/>
<path d="M161.762 161.757C143.509 180.009 124.944 196.697 107.37 210.829C134.8 214.48 163.639 205.771 184.707 184.703C205.828 163.582 214.537 134.795 210.834 107.365C196.702 124.939 180.014 143.504 161.762 161.757Z" fill="black"/>
</g>
<defs>
<clipPath id="clip0_1101_144">
<rect width="239.24" height="239.24" fill="white"/>
</clipPath>
</defs>
</svg>
